<svg xmlns="http://www.w3.org/2000/svg" width="330" height="197" viewBox="0 0 330 197">
  <g id="Grupo_7756" data-name="Grupo 7756" transform="translate(-879 -2559)">
    <rect id="Rectángulo_2384" data-name="Rectángulo 2384" width="3" height="197" transform="translate(879 2559)" fill="#c00" opacity="0.9"/>
    <g id="Grupo_7644" data-name="Grupo 7644" transform="translate(-102 157)">
      <text id="Dynamically_synergis" data-name="Dynamically synergis" transform="translate(1008 2441)" fill="#333" font-size="16" font-family="OpenSans, Open Sans"><tspan x="0" y="17">“eFax is the very best app I came across </tspan><tspan x="0" y="42">for the new millennium faxing. The rates </tspan><tspan x="0" y="67">are very reasonable and affordable. The </tspan><tspan x="0" y="92">best thing about it is no matter where </tspan><tspan x="0" y="117">you’re at, eFax is right at your </tspan><tspan x="0" y="142">fingertips.”</tspan></text>
      <text id="Palmer_R." data-name="Palmer R." transform="translate(1008 2429)" fill="#333" font-size="16" font-family="OpenSans-SemiboldItalic, Open Sans" font-weight="600" font-style="italic"><tspan x="0" y="0">Palmer R.</tspan></text>
      <g id="Grupo_7635" data-name="Grupo 7635" transform="translate(303.838 -2361.667)">
        <path id="Icon_awesome-star" data-name="Icon awesome-star" d="M7.626.46,5.935,3.889l-3.784.552a.829.829,0,0,0-.458,1.414L4.43,8.522l-.647,3.768a.828.828,0,0,0,1.2.873l3.385-1.779,3.385,1.779a.829.829,0,0,0,1.2-.873l-.647-3.768,2.737-2.668a.829.829,0,0,0-.458-1.414L10.8,3.889,9.112.46a.829.829,0,0,0-1.487,0Z" transform="translate(910.866 4778.001)" fill="#e5e511"/>
        <path id="Icon_awesome-star-2" data-name="Icon awesome-star" d="M7.626.46,5.935,3.889l-3.784.552a.829.829,0,0,0-.458,1.414L4.43,8.522l-.647,3.768a.828.828,0,0,0,1.2.873l3.385-1.779,3.385,1.779a.829.829,0,0,0,1.2-.873l-.647-3.768,2.737-2.668a.829.829,0,0,0-.458-1.414L10.8,3.889,9.112.46a.829.829,0,0,0-1.487,0Z" transform="translate(951.866 4778.001)" fill="#e5e511"/>
        <path id="Icon_awesome-star-3" data-name="Icon awesome-star" d="M7.626.46,5.935,3.889l-3.784.552a.829.829,0,0,0-.458,1.414L4.43,8.522l-.647,3.768a.828.828,0,0,0,1.2.873l3.385-1.779,3.385,1.779a.829.829,0,0,0,1.2-.873l-.647-3.768,2.737-2.668a.829.829,0,0,0-.458-1.414L10.8,3.889,9.112.46a.829.829,0,0,0-1.487,0Z" transform="translate(930.866 4778.001)" fill="#e5e511"/>
        <path id="Icon_awesome-star-4" data-name="Icon awesome-star" d="M7.626.46,5.935,3.889l-3.784.552a.829.829,0,0,0-.458,1.414L4.43,8.522l-.647,3.768a.828.828,0,0,0,1.2.873l3.385-1.779,3.385,1.779a.829.829,0,0,0,1.2-.873l-.647-3.768,2.737-2.668a.829.829,0,0,0-.458-1.414L10.8,3.889,9.112.46a.829.829,0,0,0-1.487,0Z" transform="translate(971.866 4778.001)" fill="#e5e511"/>
        <path id="Icon_awesome-star-5" data-name="Icon awesome-star" d="M7.626.46,5.935,3.889l-3.784.552a.829.829,0,0,0-.458,1.414L4.43,8.522l-.647,3.768a.828.828,0,0,0,1.2.873l3.385-1.779,3.385,1.779a.829.829,0,0,0,1.2-.873l-.647-3.768,2.737-2.668a.829.829,0,0,0-.458-1.414L10.8,3.889,9.112.46a.829.829,0,0,0-1.487,0Z" transform="translate(991.866 4778.001)" fill="#e5e511"/>
      </g>
    </g>
  </g>
</svg>
