<svg xmlns="http://www.w3.org/2000/svg" width="42" height="43" viewBox="0 0 42 43">
  <g id="_001-cloud-service" data-name="001-cloud-service" transform="translate(-8 -7)">
    <path id="Trazado_17597" data-name="Trazado 17597" d="M41.871,230.314v-2.066a2.038,2.038,0,0,0-2.032-2.032H29.677V224.2H28.323v2.015H17.484a2.038,2.038,0,0,0-2.032,2.032v.677H10.032A2.038,2.038,0,0,0,8,230.957v1.355a2.035,2.035,0,0,0,1.507,1.956,2.064,2.064,0,0,0-.152.754,1.844,1.844,0,0,0,.152.754A2.035,2.035,0,0,0,8,237.731v1.355a2.035,2.035,0,0,0,1.507,1.956,2.064,2.064,0,0,0-.152.754,1.844,1.844,0,0,0,.152.754A2.035,2.035,0,0,0,8,244.506v1.355a2.038,2.038,0,0,0,2.032,2.032H22.226a2.038,2.038,0,0,0,2.032-2.032v-1.355a2.035,2.035,0,0,0-1.507-1.956,2.064,2.064,0,0,0,.152-.754,1.844,1.844,0,0,0-.152-.754,2.035,2.035,0,0,0,1.507-1.956v-1.355a2.035,2.035,0,0,0-1.507-1.956,2.064,2.064,0,0,0,.152-.754,1.844,1.844,0,0,0-.152-.754,2.035,2.035,0,0,0,1.507-1.956v-1.355a2.038,2.038,0,0,0-2.032-2.032H16.806v-.677a.679.679,0,0,1,.677-.677H39.839a.679.679,0,0,1,.677.677v2.066a8.806,8.806,0,1,0,1.355,0ZM22.9,244.506v1.355a.679.679,0,0,1-.677.677H10.032a.679.679,0,0,1-.677-.677v-1.355a.679.679,0,0,1,.677-.677H22.226A.679.679,0,0,1,22.9,244.506ZM10.71,241.8a.679.679,0,0,1,.677-.677h9.484a.677.677,0,0,1,0,1.355H11.387A.679.679,0,0,1,10.71,241.8ZM22.9,237.731v1.355a.679.679,0,0,1-.677.677H10.032a.679.679,0,0,1-.677-.677v-1.355a.679.679,0,0,1,.677-.677H22.226A.679.679,0,0,1,22.9,237.731Zm-12.194-2.71a.679.679,0,0,1,.677-.677h9.484a.677.677,0,1,1,0,1.355H11.387A.679.679,0,0,1,10.71,235.022Zm11.516-4.742a.679.679,0,0,1,.677.677v1.355a.679.679,0,0,1-.677.677H10.032a.679.679,0,0,1-.677-.677v-1.355a.679.679,0,0,1,.677-.677Zm18.968,16.258a7.418,7.418,0,0,1-5.182-2.108,4.7,4.7,0,0,1,4.5-3.311h1.355a4.7,4.7,0,0,1,4.5,3.311A7.4,7.4,0,0,1,41.194,246.538Zm-2.71-9.484a2.71,2.71,0,1,1,2.71,2.71A2.718,2.718,0,0,1,38.484,237.054Zm8.891,6.19a6.054,6.054,0,0,0-3.5-3.142,4.065,4.065,0,1,0-5.369,0,6.082,6.082,0,0,0-3.5,3.142,7.376,7.376,0,0,1-1.27-4.158,7.452,7.452,0,1,1,13.633,4.158Z" transform="translate(0 -197.893)" fill="#069"/>
    <path id="Trazado_17598" data-name="Trazado 17598" d="M84.742,25.613h20.323a4.736,4.736,0,0,0,.677-9.425v-.059a5.424,5.424,0,0,0-5.419-5.419,5.355,5.355,0,0,0-2.591.66,7.439,7.439,0,0,0-13.667,4.081,7,7,0,0,0,.042.728,4.738,4.738,0,0,0,.635,9.433Zm0-8.129a3.386,3.386,0,0,1,3.387,3.387h1.355a4.747,4.747,0,0,0-4.014-4.683,5.385,5.385,0,0,1-.051-.737,6.089,6.089,0,0,1,11.22-3.285A5.389,5.389,0,0,0,94.9,16.129h1.355a4.065,4.065,0,1,1,8.129,0,3.894,3.894,0,0,1-.051.584l-.059.771h.779a3.387,3.387,0,1,1,0,6.774H84.742a3.387,3.387,0,0,1,0-6.774Z" transform="translate(-65.903 -1)" fill="#3599e4"/>
  </g>
</svg>
