<svg xmlns="http://www.w3.org/2000/svg" width="46" height="46" viewBox="0 0 46 46">
  <g id="_002-photo" data-name="002-photo" transform="translate(0)">
    <g id="Grupo_7683" data-name="Grupo 7683" transform="translate(13.104 8.625)">
      <g id="Grupo_7682" data-name="Grupo 7682">
        <path id="Trazado_17580" data-name="Trazado 17580" d="M147.384,96.263a.9.9,0,1,0,.263.635A.907.907,0,0,0,147.384,96.263Z" transform="translate(-145.85 -96)" fill="#069"/>
      </g>
    </g>
    <g id="Grupo_7685" data-name="Grupo 7685" transform="translate(0)">
      <g id="Grupo_7684" data-name="Grupo 7684">
        <path id="Trazado_17581" data-name="Trazado 17581" d="M11.206,0H.9A.9.9,0,0,0,0,.9V11.206a.9.9,0,0,0,1.8,0V1.8h9.409a.9.9,0,1,0,0-1.8Z" fill="#3599e4"/>
      </g>
    </g>
    <g id="Grupo_7687" data-name="Grupo 7687" transform="translate(33.895)">
      <g id="Grupo_7686" data-name="Grupo 7686">
        <path id="Trazado_17582" data-name="Trazado 17582" d="M388.479,0H378.171a.9.9,0,1,0,0,1.8h9.409v9.409a.9.9,0,0,0,1.8,0V.9A.9.9,0,0,0,388.479,0Z" transform="translate(-377.273)" fill="#3599e4"/>
      </g>
    </g>
    <g id="Grupo_7689" data-name="Grupo 7689" transform="translate(33.895 33.896)">
      <g id="Grupo_7688" data-name="Grupo 7688">
        <path id="Trazado_17583" data-name="Trazado 17583" d="M388.479,377.273a.9.9,0,0,0-.9.9v9.409h-9.409a.9.9,0,0,0,0,1.8h10.307a.9.9,0,0,0,.9-.9V378.171A.9.9,0,0,0,388.479,377.273Z" transform="translate(-377.273 -377.273)" fill="#3599e4"/>
      </g>
    </g>
    <g id="Grupo_7691" data-name="Grupo 7691" transform="translate(0 33.896)">
      <g id="Grupo_7690" data-name="Grupo 7690">
        <path id="Trazado_17584" data-name="Trazado 17584" d="M11.206,387.581H1.8v-9.409a.9.9,0,1,0-1.8,0v10.307a.9.9,0,0,0,.9.9H11.206a.9.9,0,1,0,0-1.8Z" transform="translate(0 -377.273)" fill="#3599e4"/>
      </g>
    </g>
    <g id="Grupo_7693" data-name="Grupo 7693" transform="translate(4.312 4.312)">
      <g id="Grupo_7692" data-name="Grupo 7692">
        <path id="Trazado_17585" data-name="Trazado 17585" d="M80.9,48H52.47A4.475,4.475,0,0,0,48,52.47V80.9c0,.044,0,.088,0,.132a.9.9,0,0,0,.013.233,4.476,4.476,0,0,0,4.454,4.106h9.815a.9.9,0,1,0,0-1.8H52.47a2.677,2.677,0,0,1-2.645-2.284L59.887,63.866a1.5,1.5,0,0,1,2.6,0l8.528,14.771a.9.9,0,0,0,1.556-.9l-2-3.456L74.126,69.2a1.5,1.5,0,0,1,2.462,0l6.99,10v1.7A2.677,2.677,0,0,1,80.9,83.578H70.82a.9.9,0,1,0,0,1.8H80.9a4.475,4.475,0,0,0,4.47-4.47V52.47A4.475,4.475,0,0,0,80.9,48Zm2.674,28.071-5.517-7.9a3.3,3.3,0,0,0-5.408,0l-3.067,4.39-5.541-9.6a3.3,3.3,0,0,0-5.714,0L49.8,77.75V54.109H53.91a.9.9,0,0,0,0-1.8H49.8A2.677,2.677,0,0,1,52.47,49.8H80.9a2.677,2.677,0,0,1,2.674,2.674Z" transform="translate(-48 -48)" fill="#069"/>
      </g>
    </g>
    <g id="Grupo_7695" data-name="Grupo 7695" transform="translate(25.507 10.311)">
      <g id="Grupo_7694" data-name="Grupo 7694">
        <path id="Trazado_17586" data-name="Trazado 17586" d="M288.149,114.768a4.247,4.247,0,1,0,4.247,4.247A4.252,4.252,0,0,0,288.149,114.768Zm0,6.7a2.45,2.45,0,1,1,2.45-2.45A2.453,2.453,0,0,1,288.149,121.465Z" transform="translate(-283.902 -114.768)" fill="#069"/>
      </g>
    </g>
    <g id="Grupo_7697" data-name="Grupo 7697" transform="translate(22.101 39.891)">
      <g id="Grupo_7696" data-name="Grupo 7696">
        <path id="Trazado_17587" data-name="Trazado 17587" d="M247.534,444.263a.9.9,0,1,0,.263.635A.9.9,0,0,0,247.534,444.263Z" transform="translate(-246 -444)" fill="#069"/>
      </g>
    </g>
  </g>
</svg>
