<svg id="XMLID_1031_" xmlns="http://www.w3.org/2000/svg" width="40.336" height="40.336" viewBox="0 0 40.336 40.336">
  <g id="XMLID_971_">
    <g id="XMLID_977_">
      <path id="XMLID_1030_" d="M36.032,7.716h1.246a.787.787,0,1,0,0-1.575H34.287a.787.787,0,0,0-.787.787V9.92a.787.787,0,1,0,1.575,0V9.054A18.593,18.593,0,1,1,20.168,1.575a18.874,18.874,0,0,1,2.268.137.787.787,0,0,0,.19-1.563A20.454,20.454,0,0,0,20.168,0,20.168,20.168,0,0,0,5.907,34.429,20.168,20.168,0,0,0,36.032,7.716Z" fill="#069"/>
      <path id="XMLID_1029_" d="M68.587,71.937a.788.788,0,0,0-1.086.244,15.033,15.033,0,1,0,4.706-4.7.787.787,0,0,0,.84,1.332A13.464,13.464,0,1,1,70.7,89.736a13.549,13.549,0,0,1-1.864-16.712A.788.788,0,0,0,68.587,71.937Z" transform="translate(-60.047 -60.048)" fill="#069"/>
      <path id="XMLID_1028_" d="M376.956,247.9h.971a.787.787,0,0,0,0-1.575h-.971a.787.787,0,1,0,0,1.575Z" transform="translate(-346.553 -226.937)" fill="#069"/>
      <path id="XMLID_1004_" d="M103.835,246.793a.787.787,0,0,0,.787.787h.971a.787.787,0,1,0,0-1.575h-.971A.787.787,0,0,0,103.835,246.793Z" transform="translate(-95.66 -226.638)" fill="#069"/>
      <path id="XMLID_1001_" d="M247.9,105.593v-.971a.787.787,0,1,0-1.575,0v.971a.787.787,0,0,0,1.575,0Z" transform="translate(-226.937 -95.66)" fill="#069"/>
      <path id="XMLID_1415_" d="M246.006,376.956v.971a.787.787,0,1,0,1.575,0v-.971a.787.787,0,1,0-1.575,0Z" transform="translate(-226.638 -346.553)" fill="#069"/>
      <path id="XMLID_996_" d="M190.316,157.427a.787.787,0,0,0-1.113,1.113l2.668,2.668a2.712,2.712,0,1,0,4.783,0l5.384-5.384a.787.787,0,0,0-1.113-1.113l-5.384,5.384a2.707,2.707,0,0,0-2.556,0Zm5.084,5.06a1.138,1.138,0,1,1-1.138-1.138A1.139,1.139,0,0,1,195.4,162.487Z" transform="translate(-174.095 -142.319)" fill="#3599e4"/>
      <path id="XMLID_980_" d="M119.522,119.522a.787.787,0,1,0-.557.231A.791.791,0,0,0,119.522,119.522Z" transform="translate(-108.874 -108.874)" fill="#069"/>
      <path id="XMLID_979_" d="M316.225,11.453a.788.788,0,1,0-.557-.231A.79.79,0,0,0,316.225,11.453Z" transform="translate(-290.604 -9.1)" fill="#069"/>
    </g>
  </g>
</svg>
