<svg id="_003-phone" data-name="003-phone" xmlns="http://www.w3.org/2000/svg" width="25.73" height="46" viewBox="0 0 25.73 46">
  <g id="Grupo_7699" data-name="Grupo 7699" transform="translate(0)">
    <path id="Trazado_17588" data-name="Trazado 17588" d="M238.94,457.946H237.2a.9.9,0,1,1,0-1.8h1.743a.9.9,0,0,1,0,1.8Z" transform="translate(-225.203 -415.167)" fill="#069"/>
    <path id="Trazado_17589" data-name="Trazado 17589" d="M138.539,5.289A5.3,5.3,0,0,0,133.249,0H118.1a5.3,5.3,0,0,0-5.289,5.289V40.711A5.3,5.3,0,0,0,118.1,46h15.151a5.3,5.3,0,0,0,5.289-5.289V5.289ZM114.606,36.31l5.671-7.567,2.962,3.952-3.625,5.066h-5.008Zm7.217,1.451L129.85,26.54l6.891,9.632v1.588ZM118.1,1.8h15.151a3.5,3.5,0,0,1,3.463,3.038h-6.977a.9.9,0,1,0,0,1.8h7.006V33.085l-6.16-8.611a.9.9,0,0,0-1.461,0l-4.785,6.688L121,26.706a.9.9,0,0,0-1.438,0l-4.952,6.608V6.631h7.006a.9.9,0,1,0,0-1.8h-6.977A3.5,3.5,0,0,1,118.1,1.8ZM133.249,44.2H118.1a3.5,3.5,0,0,1-3.492-3.492V39.558h22.136v1.153A3.5,3.5,0,0,1,133.249,44.2Z" transform="translate(-112.809)" fill="#069"/>
    <path id="Trazado_17590" data-name="Trazado 17590" d="M181.277,157.3a3.994,3.994,0,1,1,3.994-3.994A4,4,0,0,1,181.277,157.3Zm0-6.19a2.2,2.2,0,1,0,2.2,2.2A2.2,2.2,0,0,0,181.277,151.107Z" transform="translate(-171.49 -135.895)" fill="#3599e4"/>
    <g id="Grupo_7698" data-name="Grupo 7698" transform="translate(11.984 4.837)">
      <path id="Trazado_17591" data-name="Trazado 17591" d="M247.1,55.628a.9.9,0,1,1,.882-.73A.907.907,0,0,1,247.1,55.628Z" transform="translate(-246.198 -53.833)" fill="#069"/>
    </g>
  </g>
</svg>
