<svg xmlns="http://www.w3.org/2000/svg" width="49.056" height="39.818" viewBox="0 0 49.056 39.818">
  <g id="_002-mail" data-name="002-mail" transform="translate(-0.001 3.504)">
    <path id="Trazado_17594" data-name="Trazado 17594" d="M36.442-3.5A12.606,12.606,0,0,0,23.855,8.369H4.667A4.673,4.673,0,0,0,.04,12.44a.694.694,0,0,0-.032.33c0,.088-.008.177-.008.266V31.647a4.644,4.644,0,0,0,1.077,2.979.685.685,0,0,0,.231.257,4.653,4.653,0,0,0,3.359,1.431h27.8a4.65,4.65,0,0,0,3.356-1.428.693.693,0,0,0,.232-.258,4.647,4.647,0,0,0,1.078-2.981V21.7a12.611,12.611,0,0,0-.695-25.2ZM4.667,9.76H23.849a12.552,12.552,0,0,0,3.426,8.008,12.883,12.883,0,0,0,.973.927l-7.811,6.625a2.87,2.87,0,0,1-3.724,0L1.453,12.4A3.282,3.282,0,0,1,4.667,9.76Zm0,25.165A3.258,3.258,0,0,1,2.7,34.267l8.386-8.577a.7.7,0,1,0-.994-.972l-8.3,8.493a3.26,3.26,0,0,1-.4-1.565V14.168L15.814,26.382a4.256,4.256,0,0,0,5.521,0l8.041-6.82a12.454,12.454,0,0,0,6.37,2.14v9.948a3.257,3.257,0,0,1-.4,1.57l-8.354-8.5a.7.7,0,0,0-.991.975l8.432,8.579a3.262,3.262,0,0,1-1.962.654Zm31.775-14.6a11.1,11.1,0,0,1-6.64-2.17.667.667,0,0,0-.092-.07,11.5,11.5,0,0,1-1.425-1.275,11.221,11.221,0,1,1,8.157,3.516Zm0,0" fill="#069"/>
    <path id="Trazado_17595" data-name="Trazado 17595" d="M377.441,54.682l-5.054-.59a.694.694,0,0,0-.572.2l-.284.285-1.63-1.63a.7.7,0,1,0-.983.983l1.63,1.63-.285.285a.7.7,0,0,0-.2.572l.59,5.053a1.879,1.879,0,0,0,.536,1.106l5.9,5.9a1.871,1.871,0,0,0,2.646,0l4.711-4.711a1.873,1.873,0,0,0,0-2.646l-5.9-5.9a1.878,1.878,0,0,0-1.106-.535Zm6.027,8.1L378.756,67.5a.48.48,0,0,1-.679,0l-5.9-5.9a.481.481,0,0,1-.138-.284l-.551-4.719.538-.538.538-.537,4.719.551a.484.484,0,0,1,.285.137l5.9,5.9a.482.482,0,0,1,0,.679Zm0,0" transform="translate(-339.421 -51.777)" fill="#3599e4"/>
    <path id="Trazado_17596" data-name="Trazado 17596" d="M428.845,112.8a2.151,2.151,0,1,0,1.531-.64A2.164,2.164,0,0,0,428.845,112.8Zm2.079,2.079a.775.775,0,1,1,0-1.1A.774.774,0,0,1,430.924,114.883Zm0,0" transform="translate(-394.192 -106.479)" fill="#3599e4"/>
  </g>
</svg>
