<svg xmlns="http://www.w3.org/2000/svg" width="50.25" height="42.25" viewBox="0 0 50.25 42.25">
  <g id="Grupo_7700" data-name="Grupo 7700" transform="translate(-888 -3935)">
    <g id="_001-scanner" data-name="001-scanner" transform="translate(888 3935)">
      <g id="Grupo_7681" data-name="Grupo 7681">
        <g id="Grupo_7680" data-name="Grupo 7680">
          <path id="Trazado_17578" data-name="Trazado 17578" d="M41.543,30.81,33.538,19.283a4.557,4.557,0,0,0-1.1-1.074,4.561,4.561,0,0,0,1.106-1.075l8-11.526a3.438,3.438,0,0,0,.623-1.967A3.8,3.8,0,0,0,38.229,0H3.938A3.8,3.8,0,0,0,0,3.64,3.438,3.438,0,0,0,.623,5.607L8.629,17.134a4.557,4.557,0,0,0,1.1,1.074,4.561,4.561,0,0,0-1.106,1.075l-8,11.526A3.438,3.438,0,0,0,0,32.777a3.325,3.325,0,0,0,.054.5A.933.933,0,0,0,0,33.542v4.792a3.838,3.838,0,0,0,3.833,3.833h34.5a3.838,3.838,0,0,0,3.833-3.833V33.542a.934.934,0,0,0-.054-.269,3.324,3.324,0,0,0,.054-.5A3.438,3.438,0,0,0,41.543,30.81ZM2.2,4.514a1.526,1.526,0,0,1-.283-.874A1.892,1.892,0,0,1,3.938,1.917h34.29A1.892,1.892,0,0,1,40.25,3.64a1.525,1.525,0,0,1-.283.874l-8,11.525A3.013,3.013,0,0,1,29.5,17.25H12.666A3.009,3.009,0,0,1,10.2,16.04ZM40.25,38.333a1.919,1.919,0,0,1-1.917,1.917H3.833a1.919,1.919,0,0,1-1.917-1.917V35.884a4.135,4.135,0,0,0,2.021.533h34.29a4.135,4.135,0,0,0,2.021-.533ZM38.229,34.5H3.938a1.892,1.892,0,0,1-2.021-1.723A1.526,1.526,0,0,1,2.2,31.9l8-11.525a3.013,3.013,0,0,1,2.465-1.211H29.5a3.009,3.009,0,0,1,2.463,1.21l8,11.526a1.526,1.526,0,0,1,.283.874A1.892,1.892,0,0,1,38.229,34.5Z" fill="#069"/>
          <path id="Trazado_17579" data-name="Trazado 17579" d="M80.265,234.816a.953.953,0,0,0-.781-.406l-16.937-.025h0a.959.959,0,0,0-.788.412l-6.671,9.609a.958.958,0,0,0,.788,1.5H86.237a.957.957,0,0,0,.782-1.51Zm-22.558,9.177,5.34-7.691,15.938.023,5.406,7.668Z" transform="translate(-49.982 -213.327)" fill="#3599e4"/>
          <ellipse id="Elipse_84" data-name="Elipse 84" cx="0.958" cy="0.958" rx="0.958" ry="0.958" transform="translate(30.667 37.375)" fill="#3599e4"/>
          <ellipse id="Elipse_85" data-name="Elipse 85" cx="0.958" cy="0.958" rx="0.958" ry="0.958" transform="translate(34.5 37.375)" fill="#3599e4"/>
        </g>
      </g>
    </g>
    <path id="Icon_ionic-md-close-circle" data-name="Icon ionic-md-close-circle" d="M9,3.375A5.625,5.625,0,1,0,14.625,9,5.606,5.606,0,0,0,9,3.375Zm2.813,7.65-.787.787L9,9.787,6.975,11.812l-.788-.787L8.213,9,6.187,6.975l.788-.787L9,8.213l2.025-2.025.788.787L9.787,9Z" transform="translate(923.625 3962.625)" fill="#3599e4"/>
  </g>
</svg>
