<svg xmlns="http://www.w3.org/2000/svg" width="42.67" height="42.687" viewBox="0 0 42.67 42.687">
  <g id="_003-message" data-name="003-message" transform="translate(-0.245 -0.268)">
    <path id="Shape" d="M287.716,36.586a7.125,7.125,0,0,0-5.406-2.486.709.709,0,1,0,0,1.418,5.712,5.712,0,0,1,4.322,1.994.7.7,0,0,0,1,.075.743.743,0,0,0,.25-.484A.694.694,0,0,0,287.716,36.586Z" transform="translate(-257.881 -31.01)" fill="#3599e4"/>
    <g id="Grupo_7701" data-name="Grupo 7701" transform="translate(0.245 0.268)">
      <path id="Trazado_17599" data-name="Trazado 17599" d="M42.5,16.139a8.538,8.538,0,0,0-8.1-5.924,9.97,9.97,0,0,0-19.3-3.5,7.065,7.065,0,0,0-5.4,3.563,8.8,8.8,0,0,0-.943-.067A8.541,8.541,0,0,0,3.07,25.1V22.989a7.116,7.116,0,0,1,9.637-10.154.734.734,0,0,0,.718.05.72.72,0,0,0,.083-1.243,8.812,8.812,0,0,0-2.319-1.093,5.7,5.7,0,0,1,4.489-2.47h.209a5.574,5.574,0,0,1,3.421,1.143.709.709,0,0,0,.851-1.135A7.1,7.1,0,0,0,16.644,6.7a8.541,8.541,0,0,1,16.32,3.521v.125a8.414,8.414,0,0,0-3.321,1.3.715.715,0,1,0,.8,1.185,7.117,7.117,0,0,1,9.586,10.254v2.069A8.539,8.539,0,0,0,42.5,16.139Z" transform="translate(-0.245 -0.268)" fill="#3599e4"/>
      <path id="Trazado_17600" data-name="Trazado 17600" d="M73.312,187.7H47.681a4.978,4.978,0,0,0-4.981,4.981v17.087a4.978,4.978,0,0,0,4.981,4.981H73.312a4.978,4.978,0,0,0,4.981-4.981V192.689A4.985,4.985,0,0,0,73.312,187.7Zm-25.631,1.427H73.312a3.567,3.567,0,0,1,1.944.584L62.006,202.743a2.135,2.135,0,0,1-3.02,0L45.737,189.711A3.567,3.567,0,0,1,47.681,189.127Zm-3.563,20.65V192.689a3.529,3.529,0,0,1,.6-1.969l10.7,10.513L44.744,211.745A3.555,3.555,0,0,1,44.118,209.776Zm29.193,3.554H47.681a3.567,3.567,0,0,1-1.944-.584l10.679-10.521,1.544,1.527a3.55,3.55,0,0,0,5.031,0l1.552-1.527,10.679,10.521A3.526,3.526,0,0,1,73.312,213.331Zm3.563-3.554a3.529,3.529,0,0,1-.6,1.969l-10.7-10.513L76.257,190.72a3.538,3.538,0,0,1,.609,1.969v17.087Z" transform="translate(-39.158 -172.062)" fill="#069"/>
    </g>
  </g>
</svg>
