<svg xmlns="http://www.w3.org/2000/svg" width="57.25" height="40.323" viewBox="0 0 57.25 40.323">
  <g id="Grupo_7676" data-name="Grupo 7676" transform="translate(-880 -2394.82)">
    <g id="_003-fax" data-name="003-fax" transform="translate(880 2394.82)">
      <path id="Trazado_17555" data-name="Trazado 17555" d="M48.581,29.121h-.806V25.089a2.423,2.423,0,0,0-2.423-2.419l-.8,0V13.806A.807.807,0,0,0,43.742,13H22.774a.807.807,0,0,0-.806.806v8.867l-.806,0a2.422,2.422,0,0,0-2.419,2.419v4.032H11.484A2.422,2.422,0,0,0,9.065,31.54v.008H7.3a2.416,2.416,0,0,0-2.271-1.613H3.419A2.422,2.422,0,0,0,1,32.355v9.677a2.422,2.422,0,0,0,2.419,2.419v3.629a5.242,5.242,0,0,0,10.484,0V45.258h3.226v.806a2.422,2.422,0,0,0,2.419,2.419h2.419v.806a.806.806,0,0,0,.806.806l20.968.008a.807.807,0,0,0,.806-.806v-.815h2.419a2.422,2.422,0,0,0,2.419-2.419v-.947A2.416,2.416,0,0,0,51,42.847V31.54A2.422,2.422,0,0,0,48.581,29.121Zm-3.226-4.839a.808.808,0,0,1,.806.806v4.032H44.548V24.286Zm-2.419-9.669V29.121H23.581V14.613ZM20.355,25.089a.807.807,0,0,1,.8-.806l.81,0v4.835H20.355ZM9.065,41.226H7.452V33.161H9.065Zm-6.452.806V32.355a.807.807,0,0,1,.806-.806H5.032a.807.807,0,0,1,.806.806v9.677a.807.807,0,0,1-.806.806H3.419A.807.807,0,0,1,2.613,42.032Zm9.677,6.048a3.629,3.629,0,1,1-7.258,0V44.452A2.416,2.416,0,0,0,7.3,42.839H9.065a2.422,2.422,0,0,0,2.419,2.419h.806Zm32.258-4.427V38.806h1.613v4.847Zm1.613-6.46H20.355V35.581H46.161ZM20.355,38.806h1.613v4.839H20.355Zm-.806,8.065a.807.807,0,0,1-.806-.806v-.806h3.226v1.613Zm4.032,1.613V38.806H42.935v9.685Zm23.387-1.613H44.548v-1.6h3.226v.8A.807.807,0,0,1,46.968,46.871Zm2.419-4.024a.807.807,0,0,1-.806.806h-.806V34.774a.806.806,0,0,0-.806-.806H19.548a.806.806,0,0,0-.806.806v8.871H11.484a.807.807,0,0,1-.806-.806V31.54a.807.807,0,0,1,.806-.806h37.1a.807.807,0,0,1,.806.806Z" transform="translate(-1 -13)" fill="#069"/>
      <path id="Trazado_17556" data-name="Trazado 17556" d="M31,52H47.129v1.613H31Z" transform="translate(-6.806 -20.548)" fill="#069"/>
      <path id="Trazado_17557" data-name="Trazado 17557" d="M31,48H47.129v1.613H31Z" transform="translate(-6.806 -19.774)" fill="#069"/>
      <path id="Trazado_17558" data-name="Trazado 17558" d="M15,39h1.613v1.613H15Z" transform="translate(-3.71 -18.032)" fill="#069"/>
      <path id="Trazado_17559" data-name="Trazado 17559" d="M15,43h1.613v1.613H15Z" transform="translate(-3.71 -18.806)" fill="#069"/>
      <path id="Trazado_17560" data-name="Trazado 17560" d="M15,47h1.613v1.613H15Z" transform="translate(-3.71 -19.581)" fill="#069"/>
      <path id="Trazado_17561" data-name="Trazado 17561" d="M19,39h1.613v1.613H19Z" transform="translate(-4.484 -18.032)" fill="#069"/>
      <path id="Trazado_17562" data-name="Trazado 17562" d="M19,43h1.613v1.613H19Z" transform="translate(-4.484 -18.806)" fill="#069"/>
      <path id="Trazado_17563" data-name="Trazado 17563" d="M19,47h1.613v1.613H19Z" transform="translate(-4.484 -19.581)" fill="#069"/>
    </g>
    <path id="Icon_ionic-md-close-circle" data-name="Icon ionic-md-close-circle" d="M9,3.375A5.625,5.625,0,1,0,14.625,9,5.606,5.606,0,0,0,9,3.375Zm2.813,7.65-.787.787L9,9.787,6.975,11.812l-.788-.787L8.213,9,6.187,6.975l.788-.787L9,8.213l2.025-2.025.788.787L9.787,9Z" transform="translate(922.625 2419.625)" fill="#3599e4"/>
  </g>
</svg>
