<svg xmlns="http://www.w3.org/2000/svg" width="42.5" height="42.5" viewBox="0 0 42.5 42.5">
  <g id="cloud" transform="translate(-0.001 -0.004)">
    <path id="Trazado_17601" data-name="Trazado 17601" d="M91.421,5.671h26.917V8.5h1.417V3.546A3.546,3.546,0,0,0,116.212,0H93.546A3.545,3.545,0,0,0,90,3.546V8.5h1.417Zm2.125-4.25h22.667a2.125,2.125,0,0,1,2.125,2.125v.708H91.421V3.546A2.125,2.125,0,0,1,93.546,1.421Zm0,0" transform="translate(-83.628)" fill="#069"/>
    <path id="Trazado_17602" data-name="Trazado 17602" d="M118.337,482.837H91.421V480H90v4.958a3.546,3.546,0,0,0,3.542,3.542h22.667a3.546,3.546,0,0,0,3.542-3.542V480h-1.417Zm-2.125,4.25H93.546a2.125,2.125,0,0,1-2.125-2.125v-.708h26.917v.708A2.125,2.125,0,0,1,116.212,487.087Zm0,0" transform="translate(-83.628 -446)" fill="#069"/>
    <path id="Trazado_17603" data-name="Trazado 17603" d="M450,100h1.417v1.417H450Zm0,0" transform="translate(-418.128 -92.917)" fill="#069"/>
    <path id="Trazado_17604" data-name="Trazado 17604" d="M410,100h1.417v1.417H410Zm0,0" transform="translate(-380.961 -92.917)" fill="#069"/>
    <path id="Trazado_17605" data-name="Trazado 17605" d="M370,100h1.417v1.417H370Zm0,0" transform="translate(-343.795 -92.917)" fill="#069"/>
    <path id="Trazado_17606" data-name="Trazado 17606" d="M130,100h1.417v1.417H130Zm0,0" transform="translate(-120.795 -92.917)" fill="#069"/>
    <path id="Trazado_17607" data-name="Trazado 17607" d="M273.546,550h-2.833a.708.708,0,1,0,0,1.417h2.833a.708.708,0,1,0,0-1.417Zm0,0" transform="translate(-250.878 -511.042)" fill="#069"/>
    <path id="Trazado_17608" data-name="Trazado 17608" d="M126.194,198.453a6.361,6.361,0,0,0,4-1.417h9.46a.65.65,0,0,0,.324-.089,6.37,6.37,0,0,0-.454-12.63,7.792,7.792,0,0,0-14.478,1.488,6.375,6.375,0,0,0,1.15,12.648Zm-.5-11.308a.708.708,0,0,0,.625-.567,6.375,6.375,0,0,1,12.094-1.294.708.708,0,0,0,.637.425,4.953,4.953,0,0,1,.517,9.866.644.644,0,0,0-.163.044h-9.471a.708.708,0,0,0-.468.177,4.958,4.958,0,1,1-3.771-8.651Zm0,0" transform="translate(-111.318 -167.283)" fill="#3599e4"/>
    <path id="Trazado_17609" data-name="Trazado 17609" d="M2.834,127.023v3.613a.708.708,0,0,0,.708.708H9.209v-1.417H4.251v-2.9a3.542,3.542,0,1,0-1.417,0Zm.708-5.6a2.125,2.125,0,1,1-2.125,2.125A2.125,2.125,0,0,1,3.543,121.428Zm0,0" transform="translate(0 -111.507)" fill="#069"/>
    <path id="Trazado_17610" data-name="Trazado 17610" d="M4.251,324.325v-2.9H7.793V320H3.543a.708.708,0,0,0-.708.708v3.612a3.542,3.542,0,1,0,1.417,0Zm-.708,5.6A2.125,2.125,0,1,1,5.668,327.8,2.125,2.125,0,0,1,3.543,329.921Zm0,0" transform="translate(0 -297.333)" fill="#069"/>
    <path id="Trazado_17611" data-name="Trazado 17611" d="M474.962,127.023v2.9H470v1.417h5.667a.709.709,0,0,0,.708-.708v-3.613a3.542,3.542,0,1,0-1.417,0Zm.708-5.6a2.125,2.125,0,1,1-2.125,2.125A2.125,2.125,0,0,1,475.671,121.428Zm0,0" transform="translate(-436.711 -111.507)" fill="#069"/>
    <path id="Trazado_17612" data-name="Trazado 17612" d="M494.962,324.325v-3.612a.708.708,0,0,0-.708-.708H490v1.417h3.542v2.9a3.542,3.542,0,1,0,1.417,0Zm-.708,5.6a2.125,2.125,0,1,1,2.125-2.125A2.125,2.125,0,0,1,494.254,329.921Zm0,0" transform="translate(-455.295 -297.333)" fill="#069"/>
  </g>
</svg>
