<svg xmlns="http://www.w3.org/2000/svg" width="44" height="40.333" viewBox="0 0 44 40.333">
  <g id="_001-upload" data-name="001-upload" transform="translate(0 -1)">
    <path id="Trazado_17592" data-name="Trazado 17592" d="M19.333,33h-5.5A1.835,1.835,0,0,1,12,31.167V22H7.416a.918.918,0,0,1-.649-1.566l9.167-9.167a.917.917,0,0,1,1.3,0L26.4,20.435A.918.918,0,0,1,25.75,22H21.167v9.167A1.835,1.835,0,0,1,19.333,33Zm-9.7-12.833h3.287a.917.917,0,0,1,.917.917V31.167h5.5V21.084a.917.917,0,0,1,.917-.917h3.287l-6.954-6.954Z" transform="translate(5.417 8.333)" fill="#3599e4"/>
    <path id="Trazado_17593" data-name="Trazado 17593" d="M8.252,30.278a1.024,1.024,0,0,1-.1-.006,9.165,9.165,0,0,1,.389-18.251A13.737,13.737,0,0,1,34.2,8.414,10.978,10.978,0,0,1,36,29.9a.917.917,0,0,1-.49-1.767A9.144,9.144,0,0,0,33.556,10.2a.916.916,0,0,1-.781-.528,11.9,11.9,0,0,0-22.554,3.372.918.918,0,0,1-.908.788,7.332,7.332,0,0,0-.961,14.617.917.917,0,0,1-.1,1.828Z" transform="translate(0 0)" fill="#069"/>
  </g>
</svg>
