<svg xmlns="http://www.w3.org/2000/svg" width="64.337" height="24.871" viewBox="0 0 64.337 24.871">
  <g id="_001-send" data-name="001-send" transform="translate(0 -154.9)">
    <path id="Trazado_17568" data-name="Trazado 17568" d="M54.423,249.546h9.6a.923.923,0,1,0,0-1.846h-9.6a.923.923,0,1,0,0,1.846Z" transform="translate(-46.916 -81.38)" fill="#3599e4"/>
    <path id="Trazado_17569" data-name="Trazado 17569" d="M8.454,298.5H.923a.923.923,0,1,0,0,1.846H8.442a.922.922,0,0,0,.923-.923A.911.911,0,0,0,8.454,298.5Z" transform="translate(0 -125.928)" fill="#3599e4"/>
    <g id="Grupo_7675" data-name="Grupo 7675" transform="translate(11.74 154.9)">
      <path id="Trazado_17570" data-name="Trazado 17570" d="M161.6,248.435a.922.922,0,0,0,.923.923H165.7V247.5h-3.175A.949.949,0,0,0,161.6,248.435Z" transform="translate(-153.453 -236.104)" fill="#3599e4"/>
      <path id="Trazado_17571" data-name="Trazado 17571" d="M128.821,198.458h7.334V196.6h-7.334a.929.929,0,0,0,0,1.858Z" transform="translate(-123.899 -191.468)" fill="#3599e4"/>
      <path id="Trazado_17572" data-name="Trazado 17572" d="M107.645,298.5H96.323a.923.923,0,1,0,0,1.846h11.322Z" transform="translate(-95.4 -280.828)" fill="#3599e4"/>
      <path id="Trazado_17573" data-name="Trazado 17573" d="M238.521,158.247a3.961,3.961,0,0,0-3.913-3.347H214.02a.923.923,0,1,0,0,1.846h20.6a2.11,2.11,0,0,1,2.043,1.612l-15.85,9.574a2.744,2.744,0,0,1-2.843,0l-15.85-9.574a2.1,2.1,0,0,1,2.043-1.612h6.153a.923.923,0,1,0,0-1.846h-6.153a3.97,3.97,0,0,0-3.913,3.347,1.057,1.057,0,0,0-.049.3v17.586a.827.827,0,0,0,.049.3,3.961,3.961,0,0,0,3.913,3.347H215.73a.923.923,0,0,0,0-1.846H204.163a2.11,2.11,0,0,1-2.043-1.612l13.057-7.888,1.834,1.108a4.577,4.577,0,0,0,4.75,0l1.846-1.12.111.074,12.934,7.814a2.1,2.1,0,0,1-2.043,1.612H219.447a.923.923,0,1,0,0,1.846H234.62a3.97,3.97,0,0,0,3.913-3.347,1.056,1.056,0,0,0,.049-.3v-17.6A1.377,1.377,0,0,0,238.521,158.247Zm-36.463,15.937V160.5l11.322,6.842Zm34.654,0-11.322-6.842,11.322-6.842Z" transform="translate(-185.986 -154.9)" fill="#069"/>
    </g>
  </g>
</svg>
