<svg xmlns="http://www.w3.org/2000/svg" width="36.905" height="50" viewBox="0 0 36.905 50">
  <g id="_2218661" data-name="2218661" transform="translate(0)">
    <path id="Trazado_17566" data-name="Trazado 17566" d="M19.735,0c.961.16,1.934.27,2.883.487A18.6,18.6,0,0,1,36.687,15.569a18.8,18.8,0,0,1-8.609,19.1,3.727,3.727,0,0,1-.59.321.646.646,0,0,1-.862-.318.687.687,0,0,1,.173-.919,3.947,3.947,0,0,1,.486-.313,17,17,0,0,0,4.32-3.79,3.31,3.31,0,0,0-.4-.052c-1.4-.005-2.791,0-4.187-.013a.487.487,0,0,0-.556.39,6.21,6.21,0,0,1-.358.848.717.717,0,0,1-.99.407.743.743,0,0,1-.321-1c.415-1.192.884-2.366,1.228-3.579A28.436,28.436,0,0,0,27,19.684a2.164,2.164,0,0,0-.024-.223H19.242c-.012.17-.028.339-.032.509-.013.681-.236,1-.711,1.006-.494.008-.725-.314-.734-1.029,0-.157,0-.313,0-.5H9.938c.074,1.014.114,2,.223,2.974a26.448,26.448,0,0,0,1.925,7.605.736.736,0,0,1-.313,1.041.694.694,0,0,1-.99-.474c-.222-.908-.756-1.081-1.6-1.027-1.24.081-2.489.021-3.848.021.241.294.4.507.58.7A16.731,16.731,0,0,0,9.772,33.49c.1.057.2.113.287.177a.76.76,0,0,1,.291,1.01.715.715,0,0,1-1.042.235,16.34,16.34,0,0,1-1.5-.971A18.417,18.417,0,0,1,.049,17.887,18.55,18.55,0,0,1,15.337.283c.63-.108,1.263-.19,1.9-.283Zm-.5,9.266v8.658h7.84c-.16-1.515-.309-2.979-.472-4.444-.056-.512.146-.881.575-.967s.766.195.843.715c.109.738.213,1.477.282,2.219.077.82.114,1.644.169,2.479h6.97a.509.509,0,0,0,.032-.127A16.98,16.98,0,0,0,32.888,9.55a.736.736,0,0,0-.534-.274c-1.4-.022-2.79-.013-4.185-.013H27.13c.074.261.145.459.185.661a.709.709,0,0,1-.457.86.692.692,0,0,1-.9-.422,3.165,3.165,0,0,1-.222-.691c-.059-.348-.244-.415-.566-.412-1.812.014-3.623.005-5.435.005Zm-1.5.064a.57.57,0,0,0-.133-.052c-1.987-.005-3.972-.016-5.959,0a.556.556,0,0,0-.381.357c-.363,1.558-.755,3.113-1.019,4.691-.2,1.173-.218,2.377-.321,3.6h7.813ZM1.53,19.453a.761.761,0,0,0-.04.146,17.069,17.069,0,0,0,2.6,8.251.733.733,0,0,0,.539.269c1.6.021,3.209.013,4.813.01a3.878,3.878,0,0,0,.4-.043,32.644,32.644,0,0,1-1.331-8.633Zm25.59,8.675c1.761,0,3.443-.01,5.125.008a.731.731,0,0,0,.729-.405,17.368,17.368,0,0,0,2.236-5.867c.142-.786.205-1.588.307-2.409h-7.06A32.555,32.555,0,0,1,27.12,28.128ZM1.484,17.93H8.505A32.87,32.87,0,0,1,9.84,9.266c-1.838,0-3.614-.006-5.39.013a.559.559,0,0,0-.384.286c-.508.99-1.049,1.969-1.471,3A15.782,15.782,0,0,0,1.484,17.93ZM25.055,7.785a12.609,12.609,0,0,0-2.4-4.045A14.515,14.515,0,0,0,20.5,1.982,5.417,5.417,0,0,0,19.246,1.5v6.28Zm-7.331,0v-6.2c-2.1.195-5.069,3.407-5.755,6.2Zm5.588-5.567a17.725,17.725,0,0,1,3.242,5.365c.047.117.294.208.45.21,1.09.019,2.179.012,3.269.013h1.393A16.776,16.776,0,0,0,23.312,2.215ZM13.729,2.2c-2.645.5-7.313,3.647-8.323,5.6,1.6,0,3.183.006,4.764-.014.1,0,.244-.181.3-.308A16.124,16.124,0,0,1,13.729,2.2Z" transform="translate(-0.037)" fill="#069"/>
    <path id="Trazado_17567" data-name="Trazado 17567" d="M59.885,201.886c-.441-.632-.892-1.257-1.32-1.9-.54-.807-1.071-1.622-1.585-2.447a.45.45,0,0,0-.546-.239c-2.449.465-4.9.913-7.348,1.382a.831.831,0,0,1-.946-.251c-.254-.345-.116-.675.051-1.006q4.869-9.68,9.734-19.361c.5-.987,1-1.971,1.486-2.96.165-.332.342-.635.764-.635s.6.3.764.635q5.616,11.185,11.237,22.365a.853.853,0,0,1,.028.963.833.833,0,0,1-.947.249c-2.432-.467-4.869-.912-7.3-1.382a.515.515,0,0,0-.619.28c-.763,1.205-1.54,2.4-2.322,3.59-.165.253-.369.478-.555.714Zm.343-21.238-.1.005a.944.944,0,0,0-.044.136q-.726,5.066-1.45,10.133c-.093.649-.385.981-.83.928-.477-.058-.688-.43-.588-1.129q.585-4.147,1.187-8.29.193-1.339.381-2.676l-.093-.024q-4.316,8.595-8.652,17.232a2.032,2.032,0,0,0,.264,0q2.411-.449,4.822-.9c.436-.082,1.014-.044,1.261-.317.262-.289.208-.883.292-1.344,0-.016.008-.031.01-.048.132-.786.4-1.09.895-1,.471.088.682.476.5,1.217a3.151,3.151,0,0,0,.653,3.066,10.5,10.5,0,0,1,.83,1.255c.191.29.384.581.609.921.6-.934,1.118-1.84,1.742-2.658a2.447,2.447,0,0,0,.41-2.041c-.559-3.662-1.068-7.334-1.595-11C60.568,182.957,60.4,181.8,60.228,180.649Zm1.418-.917-.088.035c.089.645.177,1.291.269,1.937.655,4.54,1.315,9.081,1.952,13.624a.561.561,0,0,0,.552.569c1.36.238,2.716.5,4.074.755.611.114,1.223.22,1.914.344C67.4,191.179,64.521,185.455,61.646,179.731Z" transform="translate(-41.724 -151.886)" fill="#3599e4"/>
  </g>
</svg>
