<svg xmlns="http://www.w3.org/2000/svg" width="43.086" height="49.368" viewBox="0 0 43.086 49.368">
  <g id="Grupo_7721" data-name="Grupo 7721" transform="translate(-36 -216)">
    <path id="Trazado_17618" data-name="Trazado 17618" d="M295.055,493.578c.013-.262.034-.525.056-.787,0-.109.005-.217.006-.326l-.043-.283c-.009-.061-.017-.121-.024-.181h-3.239a.814.814,0,0,0,0,1.629h3.24C295.052,493.612,295.053,493.595,295.055,493.578Z" transform="translate(-234.312 -253.52)" fill="#3599e4"/>
    <path id="Trazado_17619" data-name="Trazado 17619" d="M69.262,216H38.434A2.441,2.441,0,0,0,36,218.443v19.222a2.441,2.441,0,0,0,2.434,2.443H50.2a.814.814,0,0,0,0-1.629H38.434a.814.814,0,0,1-.811-.814V218.443a.814.814,0,0,1,.811-.814H69.262a.814.814,0,0,1,.811.814v19.222a.814.814,0,0,1-.811.814h-4.2c0,.015,0,.03,0,.046,0,.205-.009.41-.019.615.015.322.022.645.028.969h4.19a2.441,2.441,0,0,0,2.434-2.443V218.443A2.441,2.441,0,0,0,69.262,216Z" transform="translate(0)" fill="#3599e4"/>
    <path id="Trazado_17620" data-name="Trazado 17620" d="M116.209,316.262h-2.36a1.626,1.626,0,0,1-1.623-1.629,3.245,3.245,0,1,0-6.49,0,1.623,1.623,0,1,1-3.245,0v-5.376A3.255,3.255,0,0,0,99.245,306H96.811a.814.814,0,0,0,0,1.629h2.434a1.628,1.628,0,0,1,1.623,1.629v5.376a3.245,3.245,0,1,0,6.49,0,1.623,1.623,0,1,1,3.245,0,3.251,3.251,0,0,0,3.245,3.258h2.275A4.4,4.4,0,0,1,116.209,316.262Z" transform="translate(-55.132 -82.67)" fill="#3599e4"/>
    <ellipse id="Elipse_86" data-name="Elipse 86" cx="1" cy="0.5" rx="1" ry="0.5" transform="translate(53 238.618)" fill="#3599e4"/>
    <g id="Grupo_7720" data-name="Grupo 7720" transform="translate(53.037 232.158)">
      <g id="Grupo_7713" data-name="Grupo 7713" transform="translate(6.903)">
        <g id="Grupo_7712" data-name="Grupo 7712">
          <path id="Trazado_17621" data-name="Trazado 17621" d="M347.23,424.44a2.974,2.974,0,0,0-1.5.407,2.994,2.994,0,0,0-5.068-1.2,2.985,2.985,0,0,0-3.57-.618V417.4a3,3,0,1,0-6,0v4.294a.811.811,0,1,0,1.623,0V417.4a1.379,1.379,0,1,1,2.758,0v13.635a.811.811,0,1,0,1.623,0V425.7a1.379,1.379,0,1,1,2.758,0v5.329a.811.811,0,1,0,1.623,0V425.7a1.379,1.379,0,1,1,2.758,0v5.329a.811.811,0,1,0,1.623,0v-3.58a1.379,1.379,0,1,1,2.758,0v8.517a10.122,10.122,0,0,1-.162,1.805.811.811,0,1,0,1.6.292,11.771,11.771,0,0,0,.188-2.1v-8.517A3.011,3.011,0,0,0,347.23,424.44Z" transform="translate(-331.086 -414.385)" fill="#069"/>
        </g>
      </g>
      <g id="Grupo_7715" data-name="Grupo 7715" transform="translate(0 11.871)">
        <g id="Grupo_7714" data-name="Grupo 7714">
          <path id="Trazado_17622" data-name="Trazado 17622" d="M268.407,577.2a.809.809,0,0,0-1.147-.04,9.9,9.9,0,0,1-6.79,2.685,10.008,10.008,0,0,1-8.965-5.649l-3.737-7.768a1.489,1.489,0,0,1,2.61-1.427l2.643,4.354a.811.811,0,0,0,1.5-.424v-7.982a.811.811,0,1,0-1.623,0v5.08l-1.139-1.876a3.085,3.085,0,0,0-4.211-1.079,3.142,3.142,0,0,0-1.246,4.062l3.737,7.768a11.554,11.554,0,0,0,18.323,3.446A.817.817,0,0,0,268.407,577.2Z" transform="translate(-246 -560.133)" fill="#069"/>
        </g>
      </g>
      <g id="Grupo_7717" data-name="Grupo 7717" transform="translate(23.121 25.934)">
        <g id="Grupo_7716" data-name="Grupo 7716">
          <path id="Trazado_17623" data-name="Trazado 17623" d="M532.38,733.042a.816.816,0,1,0,.238.576A.816.816,0,0,0,532.38,733.042Z" transform="translate(-530.995 -732.803)" fill="#069"/>
        </g>
      </g>
      <g id="Grupo_7719" data-name="Grupo 7719" transform="translate(6.903 9.265)">
        <g id="Grupo_7718" data-name="Grupo 7718">
          <path id="Trazado_17624" data-name="Trazado 17624" d="M332.47,528.372a.816.816,0,1,0,.238.576A.816.816,0,0,0,332.47,528.372Z" transform="translate(-331.085 -528.133)" fill="#069"/>
        </g>
      </g>
    </g>
  </g>
</svg>
